<?xml version="1.0" encoding="iso-8859-1"?>
<!-- Generator: Adobe Illustrator 19.0.0, SVG Export Plug-In . SVG Version: 6.00 Build 0)  -->
<svg version="1.1" id="Layer_1" xmlns="http://www.w3.org/2000/svg" xmlns:xlink="http://www.w3.org/1999/xlink" x="0px" y="0px"
	 viewBox="0 0 512 512" style="enable-background:new 0 0 512 512;" xml:space="preserve">
<path style="fill:#909296;" d="M477.867,443.733H34.133c-4.713,0-8.533-3.821-8.533-8.533v-34.133h460.8V435.2
	C486.4,439.913,482.579,443.733,477.867,443.733z"/>
<path style="fill:#7A7C82;" d="M42.667,401.067H25.6V428.8v6.4c0,4.713,3.821,8.533,8.533,8.533H51.2
	c-4.713,0-8.533-3.821-8.533-8.533v-8.154c0-3.744,3.036-6.78,6.78-6.78h428.42c4.713,0,8.533,3.821,8.533,8.533v-27.733H42.667z"/>
<path style="fill:#FFC20D;" d="M503.467,409.6H8.533C3.821,409.6,0,405.779,0,401.067V76.8c0-4.713,3.821-8.533,8.533-8.533h494.933
	c4.713,0,8.533,3.821,8.533,8.533v324.267C512,405.779,508.179,409.6,503.467,409.6z"/>
<path style="fill:#EB9617;" d="M17.067,401.067V76.8c0-4.713,3.821-8.533,8.533-8.533H8.533C3.821,68.267,0,72.087,0,76.8v324.267
	c0,4.713,3.821,8.533,8.533,8.533H25.6C20.887,409.6,17.067,405.779,17.067,401.067z"/>
<path style="fill:#FFE88A;" d="M324.267,375.467h-256c-18.851,0-34.133-15.282-34.133-34.133v-204.8
	c0-18.851,15.282-34.133,34.133-34.133h256c18.851,0,34.133,15.282,34.133,34.133v204.8
	C358.4,360.185,343.118,375.467,324.267,375.467z"/>
<path style="fill:#D3D3D5;" d="M68.267,358.4c-9.41,0-17.067-7.657-17.067-17.067v-204.8c0-9.41,7.657-17.067,17.067-17.067h256
	c9.41,0,17.067,7.657,17.067,17.067v204.8c0,9.41-7.657,17.067-17.067,17.067H68.267z"/>
<g>
	<path style="fill:#909296;" d="M324.267,358.4c9.41,0,17.067-7.657,17.067-17.067v-39.822L284.445,358.4H324.267z"/>
	<path style="fill:#909296;" d="M68.267,119.467c-9.41,0-17.067,7.657-17.067,17.067v66.845l83.911-83.911H68.267z"/>
	<path style="fill:#909296;" d="M155.022,119.467L51.2,223.289v118.045c0,9.41,7.657,17.067,17.067,17.067H83.2l238.933-238.933
		H155.022z"/>
	<polygon style="fill:#909296;" points="174.933,358.4 256,358.4 341.333,273.067 341.333,192 	"/>
</g>
<path style="fill:#D3D3D5;" d="M477.867,375.467H384c-4.713,0-8.533-3.821-8.533-8.533v-256c0-4.713,3.821-8.533,8.533-8.533h93.867
	c4.713,0,8.533,3.821,8.533,8.533v256C486.4,371.646,482.579,375.467,477.867,375.467z"/>
<path style="fill:#64666D;" d="M375.467,196.267v170.667c0,4.713,3.821,8.533,8.533,8.533h93.867c4.713,0,8.533-3.821,8.533-8.533
	V196.267H375.467z"/>
<path style="fill:#7DBB34;" d="M452.267,247.467H409.6c-4.713,0-8.533-3.821-8.533-8.533v-25.6c0-4.713,3.821-8.533,8.533-8.533
	h42.667c4.713,0,8.533,3.821,8.533,8.533v25.6C460.8,243.646,456.979,247.467,452.267,247.467z"/>
<g>
	<path style="fill:#64666D;" d="M418.133,145.067H409.6c-4.713,0-8.533-3.821-8.533-8.533S404.887,128,409.6,128h8.533
		c4.713,0,8.533,3.821,8.533,8.533S422.846,145.067,418.133,145.067z"/>
	<path style="fill:#64666D;" d="M452.267,145.067h-8.533c-4.713,0-8.533-3.821-8.533-8.533s3.821-8.533,8.533-8.533h8.533
		c4.713,0,8.533,3.821,8.533,8.533S456.979,145.067,452.267,145.067z"/>
	<path style="fill:#64666D;" d="M452.267,170.667h-8.533c-4.713,0-8.533-3.821-8.533-8.533c0-4.713,3.821-8.533,8.533-8.533h8.533
		c4.713,0,8.533,3.821,8.533,8.533C460.8,166.846,456.979,170.667,452.267,170.667z"/>
	<path style="fill:#64666D;" d="M418.133,170.667H409.6c-4.713,0-8.533-3.821-8.533-8.533c0-4.713,3.821-8.533,8.533-8.533h8.533
		c4.713,0,8.533,3.821,8.533,8.533C426.667,166.846,422.846,170.667,418.133,170.667z"/>
</g>
<g>
	<rect x="375.467" y="256" style="fill:#4E5058;" width="110.933" height="17.067"/>
	<rect x="375.467" y="281.6" style="fill:#4E5058;" width="110.933" height="17.067"/>
	<rect x="375.467" y="307.2" style="fill:#4E5058;" width="110.933" height="17.067"/>
	<rect x="375.467" y="332.8" style="fill:#4E5058;" width="110.933" height="17.067"/>
</g>
<g>
</g>
<g>
</g>
<g>
</g>
<g>
</g>
<g>
</g>
<g>
</g>
<g>
</g>
<g>
</g>
<g>
</g>
<g>
</g>
<g>
</g>
<g>
</g>
<g>
</g>
<g>
</g>
<g>
</g>
</svg>
